<?xml version="1.0" encoding="UTF-8"?>
<svg version="1.1" xmlns="http://www.w3.org/2000/svg" width="160" height="160">
<path d="M0 0 C52.8 0 105.6 0 160 0 C160 52.8 160 105.6 160 160 C107.2 160 54.4 160 0 160 C0 107.2 0 54.4 0 0 Z " fill="#000000" transform="translate(0,0)"/>
<path d="M0 0 C10.26370202 3.01726906 18.55995602 8.66501329 24 18 C28.56427729 27.58214736 29.33782118 35.53308617 25.96484375 45.58984375 C22.35040839 54.61861547 16.04116036 61.10600054 7.625 65.9375 C4 67 4 67 -7 68 C-7.33 46.55 -7.66 25.1 -8 3 C-10.97 8.28 -13.94 13.56 -17 19 C-21.125 25.6875 -21.125 25.6875 -22.8828125 28.44921875 C-24.22852286 31.52176723 -24.07238862 32.8609207 -23 36 C-22.34 36.99 -21.68 37.98 -21 39 C-20.5393933 43.97455239 -20.83218188 47.06753613 -24 51 C-28.41243737 54.76354952 -32.4683007 54.24768803 -38 54 C-40.64 58.62 -43.28 63.24 -46 68 C-53.59 68 -61.18 68 -69 68 C-67.54191779 64.35479448 -66.15897259 61.36926628 -64.19921875 58.03515625 C-63.64073242 57.08133057 -63.08224609 56.12750488 -62.50683594 55.14477539 C-61.90645508 54.12762451 -61.30607422 53.11047363 -60.6875 52.0625 C-60.06520508 51.00216553 -59.44291016 49.94183105 -58.80175781 48.84936523 C-56.87188272 45.56384318 -54.93675829 42.2814685 -53 39 C-52.41621582 38.01 -51.83243164 37.02 -51.23095703 36 C-50.67134277 35.05125 -50.11172852 34.1025 -49.53515625 33.125 C-48.98972168 32.19695557 -48.44428711 31.26891113 -47.88232422 30.31274414 C-46.79610857 28.48261861 -45.69485104 26.66133575 -44.57861328 24.84936523 C-41.97882628 20.59598281 -39.72879791 16.5384738 -38.01953125 11.84765625 C-31.52302828 -4.64576369 -15.51631307 -2.66050245 0 0 Z " fill="#F5F5F5" transform="translate(101,46)"/>
<path d="M0 0 C11.91333398 1.1913334 19.15258098 4.02324762 27 13 C32.45000741 21.89331753 35.54760539 30.1157426 33.50390625 40.52734375 C30.7067171 50.78370397 25.48079288 57.62103274 17 64 C10.95635262 67.40641943 7.51797205 67.2482028 0 68 C0 45.56 0 23.12 0 0 Z " fill="#FDFDFD" transform="translate(95,46)"/>
<path d="M0 0 C1.50433594 0.01353516 1.50433594 0.01353516 3.0390625 0.02734375 C3.80992188 0.03894531 4.58078125 0.05054687 5.375 0.0625 C8.5700441 4.95491128 10.15574782 8.03958824 9.375 14.0625 C7.58462547 18.20863048 5.52113048 20.27212547 1.375 22.0625 C-1.99242108 22.5523067 -4.38492466 22.8115388 -7.37109375 21.0078125 C-9.56418102 19.23020219 -11.35292969 17.60664063 -12.625 15.0625 C-13.30628376 8.24966238 -13.30628376 8.24966238 -11.578125 5.23828125 C-7.80850552 0.65930229 -5.73891219 -0.06673154 0 0 Z " fill="#070707" transform="translate(70.625,77.9375)"/>
<path d="M0 0 C3.16115776 1.36983503 3.9927092 1.9890638 6 5 C6.4606067 9.97455239 6.16781812 13.06753613 3 17 C-0.95179356 20.18338925 -4.01530948 20.29321709 -9 20 C-10 17 -10 17 -9.19555664 15.09887695 C-8.77137451 14.40238037 -8.34719238 13.70588379 -7.91015625 12.98828125 C-7.45576172 12.23095703 -7.00136719 11.47363281 -6.53320312 10.69335938 C-6.04787109 9.90767578 -5.56253906 9.12199219 -5.0625 8.3125 C-4.34030273 7.11657227 -4.34030273 7.11657227 -3.60351562 5.89648438 C-2.41134561 3.92527257 -1.2099739 1.96031588 0 0 Z " fill="#F5F5F5" transform="translate(74,80)"/>
</svg>
